# xmcd
#
# Track frame offsets:
#	150
#	25905
#	45745
#	68653
#	85608
#	107888
#	130950
#	153308
#	170480
#	188253
#	203778
#	221705
#	241580
#
# Disc length: 3447 seconds
#
# Revision: 0
# Processed by: cddbd v1.4b42PL0 Copyright (c) Steve Scherf et al.
# Submitted via: EZCDDA 4.3.3.2
#
DISCID=a40d750d
DTITLE=Sleepy John Estes - Electric Sleep
DYEAR=1900
DGENRE=
TTITLE0=Needmore Has Harmed Many A Man
TTITLE1=If the River Was Whiskey
TTITLE2=Everybody's Got To Change Sometime
TTITLE3=Walking Down Beale Street
TTITLE4=Laura Had A Dream
TTITLE5=Newport Blues
TTITLE6=May West
TTITLE7=How To Sing the Blues
TTITLE8=Sweet Little Flower
TTITLE9=I Ain't Gonna Sell It
TTITLE10=Easin' Back To Tennessee
TTITLE11=Airplace
TTITLE12=Drop Down Mama-Let Your Papa See
EXTD=
EXTT0=
EXTT1=
EXTT2=
EXTT3=
EXTT4=
EXTT5=
EXTT6=
EXTT7=
EXTT8=
EXTT9=
EXTT10=
EXTT11=
EXTT12=
PLAYORDER=
